{
 "cells": [
  {
   "cell_type": "markdown",
   "metadata": {},
   "source": [
    "# bb_pipeline PyTorch migration verification\n",
    "\n",
    "Runs detection on one HD video and one feeder video in **four** environments:\n",
    "\n",
    "| # | Video | Env | Localizer | Output |\n",
    "|---|-------|-----|-----------|--------|\n",
    "| 1 | HD | conda | heatmap | bb_binary repo |\n",
    "| 2 | Feeder (RPi) | conda | POLO torchscript | parquet |\n",
    "| 3 | HD | Docker | heatmap | bb_binary repo |\n",
    "| 4 | Feeder (RPi) | Docker | POLO torchscript | parquet |\n",
    "\n",
    "Both modes call the same job functions used in production (`bb_hpc.src.jobfunctions`), so success here means the production code path works end-to-end.\n",
    "\n",
    "**Before running:** edit `HD_VIDEO_PATH` and `FEEDER_VIDEO_PATH` in the setup cell."
   ]
  },
  {
   "cell_type": "markdown",
   "metadata": {},
   "source": [
    "## Setup & environment check"
   ]
  },
  {
   "cell_type": "code",
   "execution_count": 2,
   "metadata": {},
   "outputs": [
    {
     "name": "stdout",
     "output_type": "stream",
     "text": [
      "torch            : 2.5.1+cu121\n",
      "cuda available   : True\n",
      "cuda device count: 2\n",
      "cuda device[0]   : NVIDIA GeForce GTX 1080 Ti\n",
      "tensorflow       : not installed ✓\n",
      "\n",
      "model files in /home/jdavidson/miniforge3/envs/beesbook/pipeline_models:\n",
      "  decoder_2019_weights.pt                               14.28 MB\n",
      "  detection_model_4.json                                 0.44 MB\n",
      "  localizer_2019_attributes.json                         0.00 MB\n",
      "  localizer_2019_weights.pt                              1.01 MB\n",
      "  polo26_feedercams.torchscript                         12.91 MB\n",
      "  polo26_feedercams_cpu.torchscript                     12.92 MB\n",
      "  polo26_feedercams_cuda.torchscript                    12.94 MB\n",
      "  tracklet_model_8.json                                  0.89 MB\n",
      "HD       video exists: True  (/mnt/share/beesbook2025/20250801/cam-0/cam-0_20250801T090003.300824.299Z--20250801T090103.222699.929Z.mp4)\n",
      "feeder   video exists: True  (/mnt/share/beesbook2025/pi/20250901/outdoorcam/outdoorcam_2025-09-01-16-54-06.h264)\n",
      "\n",
      "run_id: 20260415-175028-3bf0ca\n",
      "  hd_conda     -> /home/jdavidson/pytorch_migration_test_runs/20260415-175028-3bf0ca/hd_conda\n",
      "  polo_conda   -> /home/jdavidson/pytorch_migration_test_runs/20260415-175028-3bf0ca/polo_conda\n",
      "  hd_docker    -> /home/jdavidson/pytorch_migration_test_runs/20260415-175028-3bf0ca/hd_docker\n",
      "  polo_docker  -> /home/jdavidson/pytorch_migration_test_runs/20260415-175028-3bf0ca/polo_docker\n"
     ]
    }
   ],
   "source": [
    "# Edit these paths for your machine.\n",
    "HD_VIDEO_PATH     = \"/mnt/share/beesbook2025/20250801/cam-0/cam-0_20250801T090003.300824.299Z--20250801T090103.222699.929Z.mp4\"\n",
    "FEEDER_VIDEO_PATH = \"/mnt/share/beesbook2025/pi/20250901/outdoorcam/outdoorcam_2025-09-01-16-54-06.h264\"\n",
    "OUT_ROOT          = \"/home/jdavidson/pytorch_migration_test_runs\"\n",
    "DOCKER_IMAGE      = \"jacobdavidson/beesbook:latest\"\n",
    "BB_HPC_DIR        = \"/mnt/share/jacob/bb_hpc\"   # same path on host and in Docker (bind is identity)\n",
    "\n",
    "import os, sys, uuid, datetime, importlib.util, glob, json\n",
    "\n",
    "# --- environment sanity check (conda kernel) -------------------------------\n",
    "import torch\n",
    "print(f\"torch            : {torch.__version__}\")\n",
    "print(f\"cuda available   : {torch.cuda.is_available()}\")\n",
    "print(f\"cuda device count: {torch.cuda.device_count()}\")\n",
    "if torch.cuda.is_available():\n",
    "    print(f\"cuda device[0]   : {torch.cuda.get_device_name(0)}\")\n",
    "\n",
    "assert importlib.util.find_spec(\"tensorflow\") is None, \\\n",
    "    \"tensorflow is still importable in this conda env!\"\n",
    "print(\"tensorflow       : not installed ✓\")\n",
    "\n",
    "model_dir = os.path.join(os.environ[\"CONDA_PREFIX\"], \"pipeline_models\")\n",
    "print(f\"\\nmodel files in {model_dir}:\")\n",
    "for f in sorted(glob.glob(os.path.join(model_dir, \"*\"))):\n",
    "    size_mb = os.path.getsize(f) / 1e6\n",
    "    print(f\"  {os.path.basename(f):50s}  {size_mb:7.2f} MB\")\n",
    "\n",
    "# --- video paths exist? ----------------------------------------------------\n",
    "for label, p in [(\"HD\", HD_VIDEO_PATH), (\"feeder\", FEEDER_VIDEO_PATH)]:\n",
    "    exists = os.path.isfile(p)\n",
    "    print(f\"{label:8s} video exists: {exists}  ({p})\")\n",
    "\n",
    "# --- build per-run output paths -------------------------------------------\n",
    "run_id = datetime.datetime.now().strftime(\"%Y%m%d-%H%M%S\") + \"-\" + uuid.uuid4().hex[:6]\n",
    "OUT = {\n",
    "    \"hd_conda\":    os.path.join(OUT_ROOT, run_id, \"hd_conda\"),\n",
    "    \"polo_conda\":  os.path.join(OUT_ROOT, run_id, \"polo_conda\"),\n",
    "    \"hd_docker\":   os.path.join(OUT_ROOT, run_id, \"hd_docker\"),\n",
    "    \"polo_docker\": os.path.join(OUT_ROOT, run_id, \"polo_docker\"),\n",
    "}\n",
    "print(f\"\\nrun_id: {run_id}\")\n",
    "for k, v in OUT.items():\n",
    "    print(f\"  {k:12s} -> {v}\")\n",
    "\n",
    "SCRIPT = f\"{BB_HPC_DIR}/test/test_pipeline_single_video.py\""
   ]
  },
  {
   "cell_type": "markdown",
   "metadata": {},
   "source": [
    "## Test 1 — HD video, conda env"
   ]
  },
  {
   "cell_type": "code",
   "execution_count": 10,
   "id": "8f779b46",
   "metadata": {},
   "outputs": [
    {
     "name": "stdout",
     "output_type": "stream",
     "text": [
      "2026-04-15 17:58:34,097:INFO - Initializing 1 pipeline(s)\n",
      "2026-04-15 17:58:34,334:INFO - Loading bb_binary repository /home/jdavidson/pytorch_migration_test_runs/20260415-142620-e7497e/hd_conda\n",
      "2026-04-15 17:58:34,335:INFO - Parsed camId = 0\n",
      "2026-04-15 17:58:34,335:INFO - Processing video frames from /mnt/share/beesbook2025/20250801/cam-0/cam-0_20250801T090003.300824.299Z--20250801T090103.222699.929Z.mp4\n",
      "TEST_RESULT: {\"mode\": \"hd\", \"video\": \"/mnt/share/beesbook2025/20250801/cam-0/cam-0_20250801T090003.300824.299Z--20250801T090103.222699.929Z.mp4\", \"out\": \"/home/jdavidson/pytorch_migration_test_runs/20260415-142620-e7497e/hd_conda\", \"bbb_files\": 1, \"rc\": 0, \"elapsed_sec\": 92.71}\n"
     ]
    }
   ],
   "source": [
    "!python -u \"{SCRIPT}\" --video \"{HD_VIDEO_PATH}\" --mode hd --out \"{OUT['hd_conda']}\" \\\n",
    "    --timestamp-format basler --video-file-type basler --num-threads 1"
   ]
  },
  {
   "cell_type": "markdown",
   "id": "fbd316fe",
   "metadata": {},
   "source": [
    "## Test 2 — Feeder video + POLO, conda env"
   ]
  },
  {
   "cell_type": "code",
   "execution_count": 2,
   "id": "360340a3",
   "metadata": {},
   "outputs": [
    {
     "name": "stdout",
     "output_type": "stream",
     "text": [
      "[POLO] device=cuda, loaded /home/jdavidson/miniforge3/envs/beesbook/pipeline_models/polo26_feedercams_cuda.torchscript\n",
      "[POLO] pipeline built: model=/home/jdavidson/miniforge3/envs/beesbook/pipeline_models/polo26_feedercams.torchscript\n",
      "ffmpeg version 8.0.1 Copyright (c) 2000-2025 the FFmpeg developers\n",
      "  built with gcc 14.3.0 (conda-forge gcc 14.3.0-18)\n",
      "  configuration: --prefix=/home/jdavidson/miniforge3/envs/beesbook --cc=/home/conda/feedstock_root/build_artifacts/ffmpeg_1773007661644/_build_env/bin/x86_64-conda-linux-gnu-cc --cxx=/home/conda/feedstock_root/build_artifacts/ffmpeg_1773007661644/_build_env/bin/x86_64-conda-linux-gnu-c++ --nm=x86_64-conda-linux-gnu-nm --ar=x86_64-conda-linux-gnu-ar --disable-doc --enable-openssl --enable-demuxer=dash --enable-hardcoded-tables --enable-libfreetype --enable-libharfbuzz --enable-libfontconfig --enable-libopenh264 --enable-libdav1d --disable-gnutls --enable-libvpx --enable-libass --enable-pthreads --enable-alsa --enable-libpulse --enable-libvpl --enable-vaapi --enable-libopenvino --enable-gpl --enable-libx264 --enable-libx265 --enable-libmp3lame --enable-libaom --enable-libsvtav1 --enable-libxml2 --enable-pic --enable-shared --disable-static --enable-version3 --enable-zlib --enable-libvorbis --enable-libopus --enable-librsvg --enable-libjxl --enable-libwebp --enable-ffplay --enable-vulkan --enable-libshaderc --pkg-config=/home/conda/feedstock_root/build_artifacts/ffmpeg_1773007661644/_build_env/bin/pkg-config\n",
      "  libavutil      60.  8.100 / 60.  8.100\n",
      "  libavcodec     62. 11.100 / 62. 11.100\n",
      "  libavformat    62.  3.100 / 62.  3.100\n",
      "  libavdevice    62.  1.100 / 62.  1.100\n",
      "  libavfilter    11.  4.100 / 11.  4.100\n",
      "  libswscale      9.  1.100 /  9.  1.100\n",
      "  libswresample   6.  1.100 /  6.  1.100\n",
      "\u001b[0;33m-vsync is deprecated. Use -fps_mode\n",
      "\u001b[0m\u001b[0;33mPassing a number to -vsync is deprecated, use a string argument as described in the manual.\n",
      "\u001b[0mInput #0, h264, from '/home/jdavidson/pytorch_migration_test_runs/20260415-142620-e7497e/polo_conda/outdoorcam_2025-09-01-16-54-06.h264':\n",
      "  Duration: N/A, bitrate: N/A\n",
      "  Stream #0:0: Video: h264 (High), yuv420p(progressive), 1920x1080, 25 fps, 20 tbr, 1200k tbn\n",
      "Stream mapping:\n",
      "  Stream #0:0 -> #0:0 (h264 (native) -> rawvideo (native))\n",
      "Press [q] to stop, [?] for help\n",
      "Output #0, image2pipe, to 'pipe:':\n",
      "  Metadata:\n",
      "    encoder         : Lavf62.3.100\n",
      "  Stream #0:0: Video: rawvideo (Y800 / 0x30303859), gray(pc, progressive), 1920x1080, q=2-31, 165888 kb/s, 10 fps, 10 tbn\n",
      "    Metadata:\n",
      "      encoder         : Lavc62.11.100 rawvideo\n",
      "\u001b[1;35m[out#0/image2pipe @ 0x64b05671d340] \u001b[0mvideo:607500KiB audio:0KiB subtitle:0KiB other streams:0KiB global headers:0KiB muxing overhead: 0.000000%\n",
      "frame=  300 fps=5.7 q=-0.0 Lsize=  607500KiB time=00:00:30.00 bitrate=165888.0kbits/s speed=0.575x elapsed=0:00:52.20    \n",
      "TEST_RESULT: {\"mode\": \"polo\", \"video\": \"/mnt/share/beesbook2025/pi/20250901/outdoorcam/outdoorcam_2025-09-01-16-54-06.h264\", \"out\": \"/home/jdavidson/pytorch_migration_test_runs/20260415-142620-e7497e/polo_conda\", \"parquet_files\": 1, \"rc\": 0, \"elapsed_sec\": 56.21}\n"
     ]
    }
   ],
   "source": [
    "!python -u \"{SCRIPT}\" --video \"{FEEDER_VIDEO_PATH}\" --mode polo --out \"{OUT['polo_conda']}\" --clahe"
   ]
  },
  {
   "cell_type": "markdown",
   "id": "e551c0ab",
   "metadata": {},
   "source": [
    "## Test 3 — HD video, Docker image\n",
    "\n",
    "Uses the same mount pattern as `bb_hpc/running_docker/detect_submit.py`: `/mnt/share → /mnt/share` (identity), so `HD_VIDEO_PATH` and `SCRIPT` paths work unchanged inside the container."
   ]
  },
  {
   "cell_type": "code",
   "execution_count": 11,
   "id": "c4b26453",
   "metadata": {},
   "outputs": [
    {
     "name": "stdout",
     "output_type": "stream",
     "text": [
      "docker run --rm --gpus all --runtime=nvidia -v /mnt/share:/mnt/share -v /home/jdavidson/pytorch_migration_test_runs:/home/jdavidson/pytorch_migration_test_runs jacobdavidson/beesbook:latest bash -lc \"set -euo pipefail; source /opt/conda/etc/profile.d/conda.sh && conda activate beesbook; export LD_LIBRARY_PATH=/opt/conda/envs/beesbook/lib:${LD_LIBRARY_PATH:-}; pip install --no-cache-dir --force-reinstall --index-url https://download.pytorch.org/whl/cu121 torch torchvision torchaudio; python -u /mnt/share/jacob/bb_hpc/test/test_pipeline_single_video.py --video '/mnt/share/beesbook2025/20250801/cam-0/cam-0_20250801T090003.300824.299Z--20250801T090103.222699.929Z.mp4' --mode hd --out '/home/jdavidson/pytorch_migration_test_runs/20260415-142620-e7497e/hd_docker' --timestamp-format basler --video-file-type basler --num-threads 1\"\n",
      "\n",
      "=============\n",
      "== PyTorch ==\n",
      "=============\n",
      "\n",
      "NVIDIA Release 24.08 (build 107063150)\n",
      "PyTorch Version 2.5.0a0+872d972\n",
      "Container image Copyright (c) 2024, NVIDIA CORPORATION & AFFILIATES. All rights reserved.\n",
      "Copyright (c) 2014-2024 Facebook Inc.\n",
      "Copyright (c) 2011-2014 Idiap Research Institute (Ronan Collobert)\n",
      "Copyright (c) 2012-2014 Deepmind Technologies    (Koray Kavukcuoglu)\n",
      "Copyright (c) 2011-2012 NEC Laboratories America (Koray Kavukcuoglu)\n",
      "Copyright (c) 2011-2013 NYU                      (Clement Farabet)\n",
      "Copyright (c) 2006-2010 NEC Laboratories America (Ronan Collobert, Leon Bottou, Iain Melvin, Jason Weston)\n",
      "Copyright (c) 2006      Idiap Research Institute (Samy Bengio)\n",
      "Copyright (c) 2001-2004 Idiap Research Institute (Ronan Collobert, Samy Bengio, Johnny Mariethoz)\n",
      "Copyright (c) 2015      Google Inc.\n",
      "Copyright (c) 2015      Yangqing Jia\n",
      "Copyright (c) 2013-2016 The Caffe contributors\n",
      "All rights reserved.\n",
      "\n",
      "Various files include modifications (c) NVIDIA CORPORATION & AFFILIATES.  All rights reserved.\n",
      "\n",
      "This container image and its contents are governed by the NVIDIA Deep Learning Container License.\n",
      "By pulling and using the container, you accept the terms and conditions of this license:\n",
      "https://developer.nvidia.com/ngc/nvidia-deep-learning-container-license\n",
      "\n",
      "NOTE: The SHMEM allocation limit is set to the default of 64MB.  This may be\n",
      "   insufficient for PyTorch.  NVIDIA recommends the use of the following flags:\n",
      "   docker run --gpus all --ipc=host --ulimit memlock=-1 --ulimit stack=67108864 ...\n",
      "\n",
      "Looking in indexes: https://download.pytorch.org/whl/cu121, https://pypi.ngc.nvidia.com\n",
      "Collecting torch\n",
      "  Downloading https://download-r2.pytorch.org/whl/cu121/torch-2.5.1%2Bcu121-cp312-cp312-linux_x86_64.whl (780.4 MB)\n",
      "     ━━━━━━━━━━━━━━━━━━━━━━━━━━━━━━━━━━━━━━━━ 780.4/780.4 MB 117.1 MB/s  0:00:06\n",
      "Collecting torchvision\n",
      "  Downloading https://download-r2.pytorch.org/whl/cu121/torchvision-0.20.1%2Bcu121-cp312-cp312-linux_x86_64.whl (7.3 MB)\n",
      "     ━━━━━━━━━━━━━━━━━━━━━━━━━━━━━━━━━━━━━━━━ 7.3/7.3 MB 119.1 MB/s  0:00:00\n",
      "Collecting torchaudio\n",
      "  Downloading https://download-r2.pytorch.org/whl/cu121/torchaudio-2.5.1%2Bcu121-cp312-cp312-linux_x86_64.whl (3.4 MB)\n",
      "     ━━━━━━━━━━━━━━━━━━━━━━━━━━━━━━━━━━━━━━━━ 3.4/3.4 MB 111.6 MB/s  0:00:00\n",
      "Collecting filelock (from torch)\n",
      "  Downloading filelock-3.25.2-py3-none-any.whl.metadata (2.0 kB)\n",
      "Collecting typing-extensions>=4.8.0 (from torch)\n",
      "  Downloading https://download.pytorch.org/whl/typing_extensions-4.15.0-py3-none-any.whl.metadata (3.3 kB)\n",
      "Collecting networkx (from torch)\n",
      "  Downloading networkx-3.6.1-py3-none-any.whl.metadata (6.8 kB)\n",
      "Collecting jinja2 (from torch)\n",
      "  Downloading https://download.pytorch.org/whl/jinja2-3.1.6-py3-none-any.whl.metadata (2.9 kB)\n",
      "Collecting fsspec (from torch)\n",
      "  Downloading fsspec-2026.2.0-py3-none-any.whl.metadata (10 kB)\n",
      "Collecting nvidia-cuda-nvrtc-cu12==12.1.105 (from torch)\n",
      "  Downloading https://download.pytorch.org/whl/cu121/nvidia_cuda_nvrtc_cu12-12.1.105-py3-none-manylinux1_x86_64.whl (23.7 MB)\n",
      "     ━━━━━━━━━━━━━━━━━━━━━━━━━━━━━━━━━━━━━━━━ 23.7/23.7 MB 109.9 MB/s  0:00:00\n",
      "Collecting nvidia-cuda-runtime-cu12==12.1.105 (from torch)\n",
      "  Downloading https://download.pytorch.org/whl/cu121/nvidia_cuda_runtime_cu12-12.1.105-py3-none-manylinux1_x86_64.whl (823 kB)\n",
      "     ━━━━━━━━━━━━━━━━━━━━━━━━━━━━━━━━━━━━━━━━ 823.6/823.6 kB 144.8 MB/s  0:00:00\n",
      "Collecting nvidia-cuda-cupti-cu12==12.1.105 (from torch)\n",
      "  Downloading https://download.pytorch.org/whl/cu121/nvidia_cuda_cupti_cu12-12.1.105-py3-none-manylinux1_x86_64.whl (14.1 MB)\n",
      "     ━━━━━━━━━━━━━━━━━━━━━━━━━━━━━━━━━━━━━━━━ 14.1/14.1 MB 113.6 MB/s  0:00:00\n",
      "Collecting nvidia-cudnn-cu12==9.1.0.70 (from torch)\n",
      "  Downloading https://download.pytorch.org/whl/cu121/nvidia_cudnn_cu12-9.1.0.70-py3-none-manylinux2014_x86_64.whl (664.8 MB)\n",
      "     ━━━━━━━━━━━━━━━━━━━━━━━━━━━━━━━━━━━━━━━━ 664.8/664.8 MB 117.2 MB/s  0:00:05\n",
      "Collecting nvidia-cublas-cu12==12.1.3.1 (from torch)\n",
      "  Downloading https://download.pytorch.org/whl/cu121/nvidia_cublas_cu12-12.1.3.1-py3-none-manylinux1_x86_64.whl (410.6 MB)\n",
      "     ━━━━━━━━━━━━━━━━━━━━━━━━━━━━━━━━━━━━━━━━ 410.6/410.6 MB 117.2 MB/s  0:00:03\n",
      "Collecting nvidia-cufft-cu12==11.0.2.54 (from torch)\n",
      "  Downloading https://download.pytorch.org/whl/cu121/nvidia_cufft_cu12-11.0.2.54-py3-none-manylinux1_x86_64.whl (121.6 MB)\n",
      "     ━━━━━━━━━━━━━━━━━━━━━━━━━━━━━━━━━━━━━━━━ 121.6/121.6 MB 117.5 MB/s  0:00:01\n",
      "Collecting nvidia-curand-cu12==10.3.2.106 (from torch)\n",
      "  Downloading https://download.pytorch.org/whl/cu121/nvidia_curand_cu12-10.3.2.106-py3-none-manylinux1_x86_64.whl (56.5 MB)\n",
      "     ━━━━━━━━━━━━━━━━━━━━━━━━━━━━━━━━━━━━━━━━ 56.5/56.5 MB 117.6 MB/s  0:00:00\n",
      "Collecting nvidia-cusolver-cu12==11.4.5.107 (from torch)\n",
      "  Downloading https://download.pytorch.org/whl/cu121/nvidia_cusolver_cu12-11.4.5.107-py3-none-manylinux1_x86_64.whl (124.2 MB)\n",
      "     ━━━━━━━━━━━━━━━━━━━━━━━━━━━━━━━━━━━━━━━━ 124.2/124.2 MB 97.7 MB/s  0:00:01\n",
      "Collecting nvidia-cusparse-cu12==12.1.0.106 (from torch)\n",
      "  Downloading https://download.pytorch.org/whl/cu121/nvidia_cusparse_cu12-12.1.0.106-py3-none-manylinux1_x86_64.whl (196.0 MB)\n",
      "     ━━━━━━━━━━━━━━━━━━━━━━━━━━━━━━━━━━━━━━━━ 196.0/196.0 MB 117.2 MB/s  0:00:01\n",
      "Collecting nvidia-nccl-cu12==2.21.5 (from torch)\n",
      "  Downloading https://download.pytorch.org/whl/nvidia_nccl_cu12-2.21.5-py3-none-manylinux2014_x86_64.whl (188.7 MB)\n",
      "     ━━━━━━━━━━━━━━━━━━━━━━━━━━━━━━━━━━━━━━━━ 188.7/188.7 MB 116.1 MB/s  0:00:01\n",
      "Collecting nvidia-nvtx-cu12==12.1.105 (from torch)\n",
      "  Downloading https://download.pytorch.org/whl/cu121/nvidia_nvtx_cu12-12.1.105-py3-none-manylinux1_x86_64.whl (99 kB)\n",
      "Collecting triton==3.1.0 (from torch)\n",
      "  Downloading https://download-r2.pytorch.org/whl/triton-3.1.0-cp312-cp312-manylinux_2_17_x86_64.manylinux2014_x86_64.whl (209.6 MB)\n",
      "     ━━━━━━━━━━━━━━━━━━━━━━━━━━━━━━━━━━━━━━━━ 209.6/209.6 MB 117.0 MB/s  0:00:01\n",
      "Collecting setuptools (from torch)\n",
      "  Downloading https://download.pytorch.org/whl/setuptools-70.2.0-py3-none-any.whl.metadata (5.8 kB)\n",
      "Collecting sympy==1.13.1 (from torch)\n",
      "  Downloading sympy-1.13.1-py3-none-any.whl.metadata (12 kB)\n",
      "Collecting nvidia-nvjitlink-cu12 (from nvidia-cusolver-cu12==11.4.5.107->torch)\n",
      "  Downloading https://download.pytorch.org/whl/nvidia_nvjitlink_cu12-12.9.86-py3-none-manylinux2010_x86_64.manylinux_2_12_x86_64.whl.metadata (1.7 kB)\n",
      "Collecting mpmath<1.4,>=1.1.0 (from sympy==1.13.1->torch)\n",
      "  Downloading mpmath-1.3.0-py3-none-any.whl.metadata (8.6 kB)\n",
      "Collecting numpy (from torchvision)\n",
      "  Downloading numpy-2.4.3-cp312-cp312-manylinux_2_27_x86_64.manylinux_2_28_x86_64.whl.metadata (6.6 kB)\n",
      "Collecting pillow!=8.3.*,>=5.3.0 (from torchvision)\n",
      "  Downloading pillow-12.1.1-cp312-cp312-manylinux_2_27_x86_64.manylinux_2_28_x86_64.whl.metadata (8.8 kB)\n",
      "Collecting MarkupSafe>=2.0 (from jinja2->torch)\n",
      "  Downloading https://download.pytorch.org/whl/markupsafe-3.0.3-cp312-cp312-manylinux2014_x86_64.manylinux_2_17_x86_64.manylinux_2_28_x86_64.whl.metadata (2.7 kB)\n",
      "Downloading sympy-1.13.1-py3-none-any.whl (6.2 MB)\n",
      "   ━━━━━━━━━━━━━━━━━━━━━━━━━━━━━━━━━━━━━━━━ 6.2/6.2 MB 103.5 MB/s  0:00:00\n",
      "Downloading mpmath-1.3.0-py3-none-any.whl (536 kB)\n",
      "   ━━━━━━━━━━━━━━━━━━━━━━━━━━━━━━━━━━━━━━━━ 536.2/536.2 kB 234.1 MB/s  0:00:00\n",
      "Downloading pillow-12.1.1-cp312-cp312-manylinux_2_27_x86_64.manylinux_2_28_x86_64.whl (7.0 MB)\n",
      "   ━━━━━━━━━━━━━━━━━━━━━━━━━━━━━━━━━━━━━━━━ 7.0/7.0 MB 107.4 MB/s  0:00:00\n",
      "Downloading https://download.pytorch.org/whl/typing_extensions-4.15.0-py3-none-any.whl (44 kB)\n",
      "Downloading filelock-3.25.2-py3-none-any.whl (26 kB)\n",
      "Downloading fsspec-2026.2.0-py3-none-any.whl (202 kB)\n",
      "Downloading https://download.pytorch.org/whl/jinja2-3.1.6-py3-none-any.whl (134 kB)\n",
      "Downloading https://download.pytorch.org/whl/markupsafe-3.0.3-cp312-cp312-manylinux2014_x86_64.manylinux_2_17_x86_64.manylinux_2_28_x86_64.whl (22 kB)\n",
      "Downloading networkx-3.6.1-py3-none-any.whl (2.1 MB)\n",
      "   ━━━━━━━━━━━━━━━━━━━━━━━━━━━━━━━━━━━━━━━━ 2.1/2.1 MB 103.2 MB/s  0:00:00\n",
      "Downloading numpy-2.4.3-cp312-cp312-manylinux_2_27_x86_64.manylinux_2_28_x86_64.whl (16.6 MB)\n",
      "   ━━━━━━━━━━━━━━━━━━━━━━━━━━━━━━━━━━━━━━━━ 16.6/16.6 MB 109.7 MB/s  0:00:00\n",
      "Downloading https://download.pytorch.org/whl/nvidia_nvjitlink_cu12-12.9.86-py3-none-manylinux2010_x86_64.manylinux_2_12_x86_64.whl (39.7 MB)\n",
      "   ━━━━━━━━━━━━━━━━━━━━━━━━━━━━━━━━━━━━━━━━ 39.7/39.7 MB 118.1 MB/s  0:00:00\n",
      "Downloading https://download.pytorch.org/whl/setuptools-70.2.0-py3-none-any.whl (930 kB)\n",
      "   ━━━━━━━━━━━━━━━━━━━━━━━━━━━━━━━━━━━━━━━━ 930.8/930.8 kB 145.3 MB/s  0:00:00\n",
      "Installing collected packages: mpmath, typing-extensions, sympy, setuptools, pillow, nvidia-nvtx-cu12, nvidia-nvjitlink-cu12, nvidia-nccl-cu12, nvidia-curand-cu12, nvidia-cufft-cu12, nvidia-cuda-runtime-cu12, nvidia-cuda-nvrtc-cu12, nvidia-cuda-cupti-cu12, nvidia-cublas-cu12, numpy, networkx, MarkupSafe, fsspec, filelock, triton, nvidia-cusparse-cu12, nvidia-cudnn-cu12, jinja2, nvidia-cusolver-cu12, torch, torchvision, torchaudio\n",
      "  Attempting uninstall: mpmath\n",
      "    Found existing installation: mpmath 1.3.0\n",
      "    Uninstalling mpmath-1.3.0:\n",
      "      Successfully uninstalled mpmath-1.3.0\n",
      "  Attempting uninstall: typing-extensions\n",
      "    Found existing installation: typing_extensions 4.15.0\n",
      "    Uninstalling typing_extensions-4.15.0:\n",
      "      Successfully uninstalled typing_extensions-4.15.0\n",
      "  Attempting uninstall: sympy\n",
      "    Found existing installation: sympy 1.14.0\n",
      "    Uninstalling sympy-1.14.0:\n",
      "      Successfully uninstalled sympy-1.14.0\n",
      "  Attempting uninstall: setuptools\n",
      "    Found existing installation: setuptools 70.2.0\n",
      "    Uninstalling setuptools-70.2.0:\n",
      "      Successfully uninstalled setuptools-70.2.0\n",
      "  Attempting uninstall: pillow\n",
      "    Found existing installation: pillow 12.2.0\n",
      "    Uninstalling pillow-12.2.0:\n",
      "      Successfully uninstalled pillow-12.2.0\n",
      "  Attempting uninstall: nvidia-nvtx-cu12\n",
      "    Found existing installation: nvidia-nvtx-cu12 12.8.90\n",
      "    Uninstalling nvidia-nvtx-cu12-12.8.90:\n",
      "      Successfully uninstalled nvidia-nvtx-cu12-12.8.90\n",
      "  Attempting uninstall: nvidia-nvjitlink-cu12\n",
      "    Found existing installation: nvidia-nvjitlink-cu12 12.8.93\n",
      "    Uninstalling nvidia-nvjitlink-cu12-12.8.93:\n",
      "      Successfully uninstalled nvidia-nvjitlink-cu12-12.8.93\n",
      "  Attempting uninstall: nvidia-nccl-cu12\n",
      "    Found existing installation: nvidia-nccl-cu12 2.28.9\n",
      "    Uninstalling nvidia-nccl-cu12-2.28.9:\n",
      "      Successfully uninstalled nvidia-nccl-cu12-2.28.9\n",
      "  Attempting uninstall: nvidia-curand-cu12\n",
      "    Found existing installation: nvidia-curand-cu12 10.3.9.90\n",
      "    Uninstalling nvidia-curand-cu12-10.3.9.90:\n",
      "      Successfully uninstalled nvidia-curand-cu12-10.3.9.90\n",
      "  Attempting uninstall: nvidia-cufft-cu12\n",
      "    Found existing installation: nvidia-cufft-cu12 11.3.3.83\n",
      "    Uninstalling nvidia-cufft-cu12-11.3.3.83:\n",
      "      Successfully uninstalled nvidia-cufft-cu12-11.3.3.83\n",
      "  Attempting uninstall: nvidia-cuda-runtime-cu12\n",
      "    Found existing installation: nvidia-cuda-runtime-cu12 12.8.90\n",
      "    Uninstalling nvidia-cuda-runtime-cu12-12.8.90:\n",
      "      Successfully uninstalled nvidia-cuda-runtime-cu12-12.8.90\n",
      "  Attempting uninstall: nvidia-cuda-nvrtc-cu12\n",
      "    Found existing installation: nvidia-cuda-nvrtc-cu12 12.8.93\n",
      "    Uninstalling nvidia-cuda-nvrtc-cu12-12.8.93:\n",
      "      Successfully uninstalled nvidia-cuda-nvrtc-cu12-12.8.93\n",
      "  Attempting uninstall: nvidia-cuda-cupti-cu12\n",
      "    Found existing installation: nvidia-cuda-cupti-cu12 12.8.90\n",
      "    Uninstalling nvidia-cuda-cupti-cu12-12.8.90:\n",
      "      Successfully uninstalled nvidia-cuda-cupti-cu12-12.8.90\n",
      "  Attempting uninstall: nvidia-cublas-cu12\n",
      "    Found existing installation: nvidia-cublas-cu12 12.8.4.1\n",
      "    Uninstalling nvidia-cublas-cu12-12.8.4.1:\n",
      "      Successfully uninstalled nvidia-cublas-cu12-12.8.4.1\n",
      "  Attempting uninstall: numpy\n",
      "    Found existing installation: numpy 2.4.3\n",
      "    Uninstalling numpy-2.4.3:\n",
      "      Successfully uninstalled numpy-2.4.3\n",
      "  Attempting uninstall: networkx\n",
      "    Found existing installation: networkx 3.6.1\n",
      "    Uninstalling networkx-3.6.1:\n",
      "      Successfully uninstalled networkx-3.6.1\n",
      "  Attempting uninstall: MarkupSafe\n",
      "    Found existing installation: MarkupSafe 3.0.3\n",
      "    Uninstalling MarkupSafe-3.0.3:\n",
      "      Successfully uninstalled MarkupSafe-3.0.3\n",
      "  Attempting uninstall: fsspec\n",
      "    Found existing installation: fsspec 2026.2.0\n",
      "    Uninstalling fsspec-2026.2.0:\n",
      "      Successfully uninstalled fsspec-2026.2.0\n",
      "  Attempting uninstall: filelock\n",
      "    Found existing installation: filelock 3.25.2\n",
      "    Uninstalling filelock-3.25.2:\n",
      "      Successfully uninstalled filelock-3.25.2\n",
      "  Attempting uninstall: triton\n",
      "    Found existing installation: triton 3.6.0\n",
      "    Uninstalling triton-3.6.0:\n",
      "      Successfully uninstalled triton-3.6.0\n",
      "  Attempting uninstall: nvidia-cusparse-cu12\n",
      "    Found existing installation: nvidia-cusparse-cu12 12.5.8.93\n",
      "    Uninstalling nvidia-cusparse-cu12-12.5.8.93:\n",
      "      Successfully uninstalled nvidia-cusparse-cu12-12.5.8.93\n",
      "  Attempting uninstall: nvidia-cudnn-cu12\n",
      "    Found existing installation: nvidia-cudnn-cu12 9.19.0.56\n",
      "    Uninstalling nvidia-cudnn-cu12-9.19.0.56:\n",
      "      Successfully uninstalled nvidia-cudnn-cu12-9.19.0.56\n",
      "  Attempting uninstall: jinja2\n",
      "    Found existing installation: Jinja2 3.1.6\n",
      "    Uninstalling Jinja2-3.1.6:\n",
      "      Successfully uninstalled Jinja2-3.1.6\n",
      "  Attempting uninstall: nvidia-cusolver-cu12\n",
      "    Found existing installation: nvidia-cusolver-cu12 11.7.3.90\n",
      "    Uninstalling nvidia-cusolver-cu12-11.7.3.90:\n",
      "      Successfully uninstalled nvidia-cusolver-cu12-11.7.3.90\n",
      "  Attempting uninstall: torch\n",
      "    Found existing installation: torch 2.11.0+cu128\n",
      "    Uninstalling torch-2.11.0+cu128:\n",
      "      Successfully uninstalled torch-2.11.0+cu128\n",
      "  Attempting uninstall: torchvision\n",
      "    Found existing installation: torchvision 0.26.0+cu128\n",
      "    Uninstalling torchvision-0.26.0+cu128:\n",
      "      Successfully uninstalled torchvision-0.26.0+cu128\n",
      "  Attempting uninstall: torchaudio\n",
      "    Found existing installation: torchaudio 2.11.0+cu128\n",
      "    Uninstalling torchaudio-2.11.0+cu128:\n",
      "      Successfully uninstalled torchaudio-2.11.0+cu128\n",
      "\n",
      "ERROR: pip's dependency resolver does not currently take into account all the packages that are installed. This behaviour is the source of the following dependency conflicts.\n",
      "jupyterlab 2.1.0 requires jupyterlab_server>=1.1.0, but you have jupyterlab-server 1.0.9 which is incompatible.\n",
      "Successfully installed MarkupSafe-3.0.3 filelock-3.25.2 fsspec-2026.2.0 jinja2-3.1.6 mpmath-1.3.0 networkx-3.6.1 numpy-2.4.3 nvidia-cublas-cu12-12.1.3.1 nvidia-cuda-cupti-cu12-12.1.105 nvidia-cuda-nvrtc-cu12-12.1.105 nvidia-cuda-runtime-cu12-12.1.105 nvidia-cudnn-cu12-9.1.0.70 nvidia-cufft-cu12-11.0.2.54 nvidia-curand-cu12-10.3.2.106 nvidia-cusolver-cu12-11.4.5.107 nvidia-cusparse-cu12-12.1.0.106 nvidia-nccl-cu12-2.21.5 nvidia-nvjitlink-cu12-12.9.86 nvidia-nvtx-cu12-12.1.105 pillow-12.1.1 setuptools-70.2.0 sympy-1.13.1 torch-2.5.1+cu121 torchaudio-2.5.1+cu121 torchvision-0.20.1+cu121 triton-3.1.0 typing-extensions-4.15.0\n",
      "WARNING: Running pip as the 'root' user can result in broken permissions and conflicting behaviour with the system package manager, possibly rendering your system unusable. It is recommended to use a virtual environment instead: https://pip.pypa.io/warnings/venv. Use the --root-user-action option if you know what you are doing and want to suppress this warning.\n",
      "2026-04-15 16:02:17,384:INFO - Initializing 1 pipeline(s)\n",
      "2026-04-15 16:02:17,637:INFO - Loading bb_binary repository /home/jdavidson/pytorch_migration_test_runs/20260415-142620-e7497e/hd_docker\n",
      "2026-04-15 16:02:17,638:INFO - Parsed camId = 0\n",
      "2026-04-15 16:02:17,638:INFO - Processing video frames from /mnt/share/beesbook2025/20250801/cam-0/cam-0_20250801T090003.300824.299Z--20250801T090103.222699.929Z.mp4\n",
      "TEST_RESULT: {\"mode\": \"hd\", \"video\": \"/mnt/share/beesbook2025/20250801/cam-0/cam-0_20250801T090003.300824.299Z--20250801T090103.222699.929Z.mp4\", \"out\": \"/home/jdavidson/pytorch_migration_test_runs/20260415-142620-e7497e/hd_docker\", \"bbb_files\": 1, \"rc\": 0, \"elapsed_sec\": 94.87}\n"
     ]
    }
   ],
   "source": [
    "# On this dev box (GTX 1080 Ti = sm_61), the image's default cu128 torch can't run.\n",
    "# Reinstall torch with cu121 wheels inside the throwaway container for sm_61+ support.\n",
    "# In production on newer GPUs, this pip step isn't needed — remove it there.\n",
    "torch_patch_for_old_gpu = (\n",
    "    \"pip install --no-cache-dir --force-reinstall \"\n",
    "    \"--index-url https://download.pytorch.org/whl/cu121 \"\n",
    "    \"torch torchvision torchaudio; \"\n",
    ")\n",
    "\n",
    "\n",
    "docker_payload_hd = (\n",
    "    \"set -euo pipefail; \"\n",
    "    \"source /opt/conda/etc/profile.d/conda.sh && conda activate beesbook; \"\n",
    "    \"export LD_LIBRARY_PATH=/opt/conda/envs/beesbook/lib:${LD_LIBRARY_PATH:-}; \"\n",
    "    + torch_patch_for_old_gpu +\n",
    "    f\"python -u {SCRIPT} --video '{HD_VIDEO_PATH}' --mode hd --out '{OUT['hd_docker']}' \"\n",
    "    \"--timestamp-format basler --video-file-type basler --num-threads 1\"\n",
    ")\n",
    "docker_cmd_hd = (\n",
    "    f\"docker run --rm --gpus all --runtime=nvidia \"\n",
    "    f\"-v /mnt/share:/mnt/share \"\n",
    "    f\"-v {OUT_ROOT}:{OUT_ROOT} \"\n",
    "    f\"{DOCKER_IMAGE} bash -lc \\\"{docker_payload_hd}\\\"\"\n",
    ")\n",
    "print(docker_cmd_hd)\n",
    "!{docker_cmd_hd}\n"
   ]
  },
  {
   "cell_type": "markdown",
   "id": "71f535e1",
   "metadata": {},
   "source": [
    "## Test 4 — Feeder video + POLO, Docker image"
   ]
  },
  {
   "cell_type": "code",
   "execution_count": 16,
   "id": "32621746",
   "metadata": {},
   "outputs": [
    {
     "name": "stdout",
     "output_type": "stream",
     "text": [
      "docker run --rm --gpus all --runtime=nvidia -v /mnt/share:/mnt/share -v /home/jdavidson/pytorch_migration_test_runs:/home/jdavidson/pytorch_migration_test_runs jacobdavidson/beesbook:latest bash -lc \"set -euo pipefail; source /opt/conda/etc/profile.d/conda.sh && conda activate beesbook; export LD_LIBRARY_PATH=/opt/conda/envs/beesbook/lib:${LD_LIBRARY_PATH:-}; pip install --no-cache-dir --force-reinstall --index-url https://download.pytorch.org/whl/cu121 torch torchvision torchaudio; python -u /mnt/share/jacob/bb_hpc/test/test_pipeline_single_video.py --video '/mnt/share/beesbook2025/pi/20250901/outdoorcam/outdoorcam_2025-09-01-16-54-06.h264' --mode polo --out '/home/jdavidson/pytorch_migration_test_runs/20260415-142620-e7497e/polo_docker' --clahe\"\n",
      "\n",
      "=============\n",
      "== PyTorch ==\n",
      "=============\n",
      "\n",
      "NVIDIA Release 24.08 (build 107063150)\n",
      "PyTorch Version 2.5.0a0+872d972\n",
      "Container image Copyright (c) 2024, NVIDIA CORPORATION & AFFILIATES. All rights reserved.\n",
      "Copyright (c) 2014-2024 Facebook Inc.\n",
      "Copyright (c) 2011-2014 Idiap Research Institute (Ronan Collobert)\n",
      "Copyright (c) 2012-2014 Deepmind Technologies    (Koray Kavukcuoglu)\n",
      "Copyright (c) 2011-2012 NEC Laboratories America (Koray Kavukcuoglu)\n",
      "Copyright (c) 2011-2013 NYU                      (Clement Farabet)\n",
      "Copyright (c) 2006-2010 NEC Laboratories America (Ronan Collobert, Leon Bottou, Iain Melvin, Jason Weston)\n",
      "Copyright (c) 2006      Idiap Research Institute (Samy Bengio)\n",
      "Copyright (c) 2001-2004 Idiap Research Institute (Ronan Collobert, Samy Bengio, Johnny Mariethoz)\n",
      "Copyright (c) 2015      Google Inc.\n",
      "Copyright (c) 2015      Yangqing Jia\n",
      "Copyright (c) 2013-2016 The Caffe contributors\n",
      "All rights reserved.\n",
      "\n",
      "Various files include modifications (c) NVIDIA CORPORATION & AFFILIATES.  All rights reserved.\n",
      "\n",
      "This container image and its contents are governed by the NVIDIA Deep Learning Container License.\n",
      "By pulling and using the container, you accept the terms and conditions of this license:\n",
      "https://developer.nvidia.com/ngc/nvidia-deep-learning-container-license\n",
      "\n",
      "NOTE: The SHMEM allocation limit is set to the default of 64MB.  This may be\n",
      "   insufficient for PyTorch.  NVIDIA recommends the use of the following flags:\n",
      "   docker run --gpus all --ipc=host --ulimit memlock=-1 --ulimit stack=67108864 ...\n",
      "\n",
      "Looking in indexes: https://download.pytorch.org/whl/cu121, https://pypi.ngc.nvidia.com\n",
      "Collecting torch\n",
      "  Downloading https://download-r2.pytorch.org/whl/cu121/torch-2.5.1%2Bcu121-cp312-cp312-linux_x86_64.whl (780.4 MB)\n",
      "     ━━━━━━━━━━━━━━━━━━━━━━━━━━━━━━━━━━━━━━━━ 780.4/780.4 MB 117.3 MB/s  0:00:06\n",
      "Collecting torchvision\n",
      "  Downloading https://download-r2.pytorch.org/whl/cu121/torchvision-0.20.1%2Bcu121-cp312-cp312-linux_x86_64.whl (7.3 MB)\n",
      "     ━━━━━━━━━━━━━━━━━━━━━━━━━━━━━━━━━━━━━━━━ 7.3/7.3 MB 118.1 MB/s  0:00:00\n",
      "Collecting torchaudio\n",
      "  Downloading https://download-r2.pytorch.org/whl/cu121/torchaudio-2.5.1%2Bcu121-cp312-cp312-linux_x86_64.whl (3.4 MB)\n",
      "     ━━━━━━━━━━━━━━━━━━━━━━━━━━━━━━━━━━━━━━━━ 3.4/3.4 MB 115.1 MB/s  0:00:00\n",
      "Collecting filelock (from torch)\n",
      "  Downloading filelock-3.25.2-py3-none-any.whl.metadata (2.0 kB)\n",
      "Collecting typing-extensions>=4.8.0 (from torch)\n",
      "  Downloading https://download.pytorch.org/whl/typing_extensions-4.15.0-py3-none-any.whl.metadata (3.3 kB)\n",
      "Collecting networkx (from torch)\n",
      "  Downloading networkx-3.6.1-py3-none-any.whl.metadata (6.8 kB)\n",
      "Collecting jinja2 (from torch)\n",
      "  Downloading https://download.pytorch.org/whl/jinja2-3.1.6-py3-none-any.whl.metadata (2.9 kB)\n",
      "Collecting fsspec (from torch)\n",
      "  Downloading fsspec-2026.2.0-py3-none-any.whl.metadata (10 kB)\n",
      "Collecting nvidia-cuda-nvrtc-cu12==12.1.105 (from torch)\n",
      "  Downloading https://download.pytorch.org/whl/cu121/nvidia_cuda_nvrtc_cu12-12.1.105-py3-none-manylinux1_x86_64.whl (23.7 MB)\n",
      "     ━━━━━━━━━━━━━━━━━━━━━━━━━━━━━━━━━━━━━━━━ 23.7/23.7 MB 112.9 MB/s  0:00:00\n",
      "Collecting nvidia-cuda-runtime-cu12==12.1.105 (from torch)\n",
      "  Downloading https://download.pytorch.org/whl/cu121/nvidia_cuda_runtime_cu12-12.1.105-py3-none-manylinux1_x86_64.whl (823 kB)\n",
      "     ━━━━━━━━━━━━━━━━━━━━━━━━━━━━━━━━━━━━━━━━ 823.6/823.6 kB 161.2 MB/s  0:00:00\n",
      "Collecting nvidia-cuda-cupti-cu12==12.1.105 (from torch)\n",
      "  Downloading https://download.pytorch.org/whl/cu121/nvidia_cuda_cupti_cu12-12.1.105-py3-none-manylinux1_x86_64.whl (14.1 MB)\n",
      "     ━━━━━━━━━━━━━━━━━━━━━━━━━━━━━━━━━━━━━━━━ 14.1/14.1 MB 118.3 MB/s  0:00:00\n",
      "Collecting nvidia-cudnn-cu12==9.1.0.70 (from torch)\n",
      "  Downloading https://download.pytorch.org/whl/cu121/nvidia_cudnn_cu12-9.1.0.70-py3-none-manylinux2014_x86_64.whl (664.8 MB)\n",
      "     ━━━━━━━━━━━━━━━━━━━━━━━━━━━━━━━━━━━━━━━━ 664.8/664.8 MB 103.0 MB/s  0:00:06\n",
      "Collecting nvidia-cublas-cu12==12.1.3.1 (from torch)\n",
      "  Downloading https://download.pytorch.org/whl/cu121/nvidia_cublas_cu12-12.1.3.1-py3-none-manylinux1_x86_64.whl (410.6 MB)\n",
      "     ━━━━━━━━━━━━━━━━━━━━━━━━━━━━━━━━━━━━━━━━ 410.6/410.6 MB 117.2 MB/s  0:00:03\n",
      "Collecting nvidia-cufft-cu12==11.0.2.54 (from torch)\n",
      "  Downloading https://download.pytorch.org/whl/cu121/nvidia_cufft_cu12-11.0.2.54-py3-none-manylinux1_x86_64.whl (121.6 MB)\n",
      "     ━━━━━━━━━━━━━━━━━━━━━━━━━━━━━━━━━━━━━━━━ 121.6/121.6 MB 117.3 MB/s  0:00:01\n",
      "Collecting nvidia-curand-cu12==10.3.2.106 (from torch)\n",
      "  Downloading https://download.pytorch.org/whl/cu121/nvidia_curand_cu12-10.3.2.106-py3-none-manylinux1_x86_64.whl (56.5 MB)\n",
      "     ━━━━━━━━━━━━━━━━━━━━━━━━━━━━━━━━━━━━━━━━ 56.5/56.5 MB 115.9 MB/s  0:00:00\n",
      "Collecting nvidia-cusolver-cu12==11.4.5.107 (from torch)\n",
      "  Downloading https://download.pytorch.org/whl/cu121/nvidia_cusolver_cu12-11.4.5.107-py3-none-manylinux1_x86_64.whl (124.2 MB)\n",
      "     ━━━━━━━━━━━━━━━━━━━━━━━━━━━━━━━━━━━━━━━━ 124.2/124.2 MB 98.1 MB/s  0:00:01\n",
      "Collecting nvidia-cusparse-cu12==12.1.0.106 (from torch)\n",
      "  Downloading https://download.pytorch.org/whl/cu121/nvidia_cusparse_cu12-12.1.0.106-py3-none-manylinux1_x86_64.whl (196.0 MB)\n",
      "     ━━━━━━━━━━━━━━━━━━━━━━━━━━━━━━━━━━━━━━━━ 196.0/196.0 MB 117.4 MB/s  0:00:01\n",
      "Collecting nvidia-nccl-cu12==2.21.5 (from torch)\n",
      "  Downloading https://download.pytorch.org/whl/nvidia_nccl_cu12-2.21.5-py3-none-manylinux2014_x86_64.whl (188.7 MB)\n",
      "     ━━━━━━━━━━━━━━━━━━━━━━━━━━━━━━━━━━━━━━━━ 188.7/188.7 MB 117.4 MB/s  0:00:01\n",
      "Collecting nvidia-nvtx-cu12==12.1.105 (from torch)\n",
      "  Downloading https://download.pytorch.org/whl/cu121/nvidia_nvtx_cu12-12.1.105-py3-none-manylinux1_x86_64.whl (99 kB)\n",
      "Collecting triton==3.1.0 (from torch)\n",
      "  Downloading https://download-r2.pytorch.org/whl/triton-3.1.0-cp312-cp312-manylinux_2_17_x86_64.manylinux2014_x86_64.whl (209.6 MB)\n",
      "     ━━━━━━━━━━━━━━━━━━━━━━━━━━━━━━━━━━━━━━━━ 209.6/209.6 MB 117.3 MB/s  0:00:01\n",
      "Collecting setuptools (from torch)\n",
      "  Downloading https://download.pytorch.org/whl/setuptools-70.2.0-py3-none-any.whl.metadata (5.8 kB)\n",
      "Collecting sympy==1.13.1 (from torch)\n",
      "  Downloading sympy-1.13.1-py3-none-any.whl.metadata (12 kB)\n",
      "Collecting nvidia-nvjitlink-cu12 (from nvidia-cusolver-cu12==11.4.5.107->torch)\n",
      "  Downloading https://download.pytorch.org/whl/nvidia_nvjitlink_cu12-12.9.86-py3-none-manylinux2010_x86_64.manylinux_2_12_x86_64.whl.metadata (1.7 kB)\n",
      "Collecting mpmath<1.4,>=1.1.0 (from sympy==1.13.1->torch)\n",
      "  Downloading mpmath-1.3.0-py3-none-any.whl.metadata (8.6 kB)\n",
      "Collecting numpy (from torchvision)\n",
      "  Downloading numpy-2.4.3-cp312-cp312-manylinux_2_27_x86_64.manylinux_2_28_x86_64.whl.metadata (6.6 kB)\n",
      "Collecting pillow!=8.3.*,>=5.3.0 (from torchvision)\n",
      "  Downloading pillow-12.1.1-cp312-cp312-manylinux_2_27_x86_64.manylinux_2_28_x86_64.whl.metadata (8.8 kB)\n",
      "Collecting MarkupSafe>=2.0 (from jinja2->torch)\n",
      "  Downloading https://download.pytorch.org/whl/markupsafe-3.0.3-cp312-cp312-manylinux2014_x86_64.manylinux_2_17_x86_64.manylinux_2_28_x86_64.whl.metadata (2.7 kB)\n",
      "Downloading sympy-1.13.1-py3-none-any.whl (6.2 MB)\n",
      "   ━━━━━━━━━━━━━━━━━━━━━━━━━━━━━━━━━━━━━━━━ 6.2/6.2 MB 99.9 MB/s  0:00:00\n",
      "Downloading mpmath-1.3.0-py3-none-any.whl (536 kB)\n",
      "   ━━━━━━━━━━━━━━━━━━━━━━━━━━━━━━━━━━━━━━━━ 536.2/536.2 kB 225.3 MB/s  0:00:00\n",
      "Downloading pillow-12.1.1-cp312-cp312-manylinux_2_27_x86_64.manylinux_2_28_x86_64.whl (7.0 MB)\n",
      "   ━━━━━━━━━━━━━━━━━━━━━━━━━━━━━━━━━━━━━━━━ 7.0/7.0 MB 117.3 MB/s  0:00:00\n",
      "Downloading https://download.pytorch.org/whl/typing_extensions-4.15.0-py3-none-any.whl (44 kB)\n",
      "Downloading filelock-3.25.2-py3-none-any.whl (26 kB)\n",
      "Downloading fsspec-2026.2.0-py3-none-any.whl (202 kB)\n",
      "Downloading https://download.pytorch.org/whl/jinja2-3.1.6-py3-none-any.whl (134 kB)\n",
      "Downloading https://download.pytorch.org/whl/markupsafe-3.0.3-cp312-cp312-manylinux2014_x86_64.manylinux_2_17_x86_64.manylinux_2_28_x86_64.whl (22 kB)\n",
      "Downloading networkx-3.6.1-py3-none-any.whl (2.1 MB)\n",
      "   ━━━━━━━━━━━━━━━━━━━━━━━━━━━━━━━━━━━━━━━━ 2.1/2.1 MB 85.8 MB/s  0:00:00\n",
      "Downloading numpy-2.4.3-cp312-cp312-manylinux_2_27_x86_64.manylinux_2_28_x86_64.whl (16.6 MB)\n",
      "   ━━━━━━━━━━━━━━━━━━━━━━━━━━━━━━━━━━━━━━━━ 16.6/16.6 MB 97.1 MB/s  0:00:00\n",
      "Downloading https://download.pytorch.org/whl/nvidia_nvjitlink_cu12-12.9.86-py3-none-manylinux2010_x86_64.manylinux_2_12_x86_64.whl (39.7 MB)\n",
      "   ━━━━━━━━━━━━━━━━━━━━━━━━━━━━━━━━━━━━━━━━ 39.7/39.7 MB 118.2 MB/s  0:00:00\n",
      "Downloading https://download.pytorch.org/whl/setuptools-70.2.0-py3-none-any.whl (930 kB)\n",
      "   ━━━━━━━━━━━━━━━━━━━━━━━━━━━━━━━━━━━━━━━━ 930.8/930.8 kB 195.3 MB/s  0:00:00\n",
      "Installing collected packages: mpmath, typing-extensions, sympy, setuptools, pillow, nvidia-nvtx-cu12, nvidia-nvjitlink-cu12, nvidia-nccl-cu12, nvidia-curand-cu12, nvidia-cufft-cu12, nvidia-cuda-runtime-cu12, nvidia-cuda-nvrtc-cu12, nvidia-cuda-cupti-cu12, nvidia-cublas-cu12, numpy, networkx, MarkupSafe, fsspec, filelock, triton, nvidia-cusparse-cu12, nvidia-cudnn-cu12, jinja2, nvidia-cusolver-cu12, torch, torchvision, torchaudio\n",
      "  Attempting uninstall: mpmath\n",
      "    Found existing installation: mpmath 1.3.0\n",
      "    Uninstalling mpmath-1.3.0:\n",
      "      Successfully uninstalled mpmath-1.3.0\n",
      "  Attempting uninstall: typing-extensions\n",
      "    Found existing installation: typing_extensions 4.15.0\n",
      "    Uninstalling typing_extensions-4.15.0:\n",
      "      Successfully uninstalled typing_extensions-4.15.0\n",
      "  Attempting uninstall: sympy\n",
      "    Found existing installation: sympy 1.14.0\n",
      "    Uninstalling sympy-1.14.0:\n",
      "      Successfully uninstalled sympy-1.14.0\n",
      "  Attempting uninstall: setuptools\n",
      "    Found existing installation: setuptools 70.2.0\n",
      "    Uninstalling setuptools-70.2.0:\n",
      "      Successfully uninstalled setuptools-70.2.0\n",
      "  Attempting uninstall: pillow\n",
      "    Found existing installation: pillow 12.2.0\n",
      "    Uninstalling pillow-12.2.0:\n",
      "      Successfully uninstalled pillow-12.2.0\n",
      "  Attempting uninstall: nvidia-nvtx-cu12\n",
      "    Found existing installation: nvidia-nvtx-cu12 12.8.90\n",
      "    Uninstalling nvidia-nvtx-cu12-12.8.90:\n",
      "      Successfully uninstalled nvidia-nvtx-cu12-12.8.90\n",
      "  Attempting uninstall: nvidia-nvjitlink-cu12\n",
      "    Found existing installation: nvidia-nvjitlink-cu12 12.8.93\n",
      "    Uninstalling nvidia-nvjitlink-cu12-12.8.93:\n",
      "      Successfully uninstalled nvidia-nvjitlink-cu12-12.8.93\n",
      "  Attempting uninstall: nvidia-nccl-cu12\n",
      "    Found existing installation: nvidia-nccl-cu12 2.28.9\n",
      "    Uninstalling nvidia-nccl-cu12-2.28.9:\n",
      "      Successfully uninstalled nvidia-nccl-cu12-2.28.9\n",
      "  Attempting uninstall: nvidia-curand-cu12\n",
      "    Found existing installation: nvidia-curand-cu12 10.3.9.90\n",
      "    Uninstalling nvidia-curand-cu12-10.3.9.90:\n",
      "      Successfully uninstalled nvidia-curand-cu12-10.3.9.90\n",
      "  Attempting uninstall: nvidia-cufft-cu12\n",
      "    Found existing installation: nvidia-cufft-cu12 11.3.3.83\n",
      "    Uninstalling nvidia-cufft-cu12-11.3.3.83:\n",
      "      Successfully uninstalled nvidia-cufft-cu12-11.3.3.83\n",
      "  Attempting uninstall: nvidia-cuda-runtime-cu12\n",
      "    Found existing installation: nvidia-cuda-runtime-cu12 12.8.90\n",
      "    Uninstalling nvidia-cuda-runtime-cu12-12.8.90:\n",
      "      Successfully uninstalled nvidia-cuda-runtime-cu12-12.8.90\n",
      "  Attempting uninstall: nvidia-cuda-nvrtc-cu12\n",
      "    Found existing installation: nvidia-cuda-nvrtc-cu12 12.8.93\n",
      "    Uninstalling nvidia-cuda-nvrtc-cu12-12.8.93:\n",
      "      Successfully uninstalled nvidia-cuda-nvrtc-cu12-12.8.93\n",
      "  Attempting uninstall: nvidia-cuda-cupti-cu12\n",
      "    Found existing installation: nvidia-cuda-cupti-cu12 12.8.90\n",
      "    Uninstalling nvidia-cuda-cupti-cu12-12.8.90:\n",
      "      Successfully uninstalled nvidia-cuda-cupti-cu12-12.8.90\n",
      "  Attempting uninstall: nvidia-cublas-cu12\n",
      "    Found existing installation: nvidia-cublas-cu12 12.8.4.1\n",
      "    Uninstalling nvidia-cublas-cu12-12.8.4.1:\n",
      "      Successfully uninstalled nvidia-cublas-cu12-12.8.4.1\n",
      "  Attempting uninstall: numpy\n",
      "    Found existing installation: numpy 2.4.3\n",
      "    Uninstalling numpy-2.4.3:\n",
      "      Successfully uninstalled numpy-2.4.3\n",
      "  Attempting uninstall: networkx\n",
      "    Found existing installation: networkx 3.6.1\n",
      "    Uninstalling networkx-3.6.1:\n",
      "      Successfully uninstalled networkx-3.6.1\n",
      "  Attempting uninstall: MarkupSafe\n",
      "    Found existing installation: MarkupSafe 3.0.3\n",
      "    Uninstalling MarkupSafe-3.0.3:\n",
      "      Successfully uninstalled MarkupSafe-3.0.3\n",
      "  Attempting uninstall: fsspec\n",
      "    Found existing installation: fsspec 2026.2.0\n",
      "    Uninstalling fsspec-2026.2.0:\n",
      "      Successfully uninstalled fsspec-2026.2.0\n",
      "  Attempting uninstall: filelock\n",
      "    Found existing installation: filelock 3.25.2\n",
      "    Uninstalling filelock-3.25.2:\n",
      "      Successfully uninstalled filelock-3.25.2\n",
      "  Attempting uninstall: triton\n",
      "    Found existing installation: triton 3.6.0\n",
      "    Uninstalling triton-3.6.0:\n",
      "      Successfully uninstalled triton-3.6.0\n",
      "  Attempting uninstall: nvidia-cusparse-cu12\n",
      "    Found existing installation: nvidia-cusparse-cu12 12.5.8.93\n",
      "    Uninstalling nvidia-cusparse-cu12-12.5.8.93:\n",
      "      Successfully uninstalled nvidia-cusparse-cu12-12.5.8.93\n",
      "  Attempting uninstall: nvidia-cudnn-cu12\n",
      "    Found existing installation: nvidia-cudnn-cu12 9.19.0.56\n",
      "    Uninstalling nvidia-cudnn-cu12-9.19.0.56:\n",
      "      Successfully uninstalled nvidia-cudnn-cu12-9.19.0.56\n",
      "  Attempting uninstall: jinja2\n",
      "    Found existing installation: Jinja2 3.1.6\n",
      "    Uninstalling Jinja2-3.1.6:\n",
      "      Successfully uninstalled Jinja2-3.1.6\n",
      "  Attempting uninstall: nvidia-cusolver-cu12\n",
      "    Found existing installation: nvidia-cusolver-cu12 11.7.3.90\n",
      "    Uninstalling nvidia-cusolver-cu12-11.7.3.90:\n",
      "      Successfully uninstalled nvidia-cusolver-cu12-11.7.3.90\n",
      "  Attempting uninstall: torch\n",
      "    Found existing installation: torch 2.11.0+cu128\n",
      "    Uninstalling torch-2.11.0+cu128:\n",
      "      Successfully uninstalled torch-2.11.0+cu128\n",
      "  Attempting uninstall: torchvision\n",
      "    Found existing installation: torchvision 0.26.0+cu128\n",
      "    Uninstalling torchvision-0.26.0+cu128:\n",
      "      Successfully uninstalled torchvision-0.26.0+cu128\n",
      "  Attempting uninstall: torchaudio\n",
      "    Found existing installation: torchaudio 2.11.0+cu128\n",
      "    Uninstalling torchaudio-2.11.0+cu128:\n",
      "      Successfully uninstalled torchaudio-2.11.0+cu128\n",
      "\n",
      "ERROR: pip's dependency resolver does not currently take into account all the packages that are installed. This behaviour is the source of the following dependency conflicts.\n",
      "jupyterlab 2.1.0 requires jupyterlab_server>=1.1.0, but you have jupyterlab-server 1.0.9 which is incompatible.\n",
      "Successfully installed MarkupSafe-3.0.3 filelock-3.25.2 fsspec-2026.2.0 jinja2-3.1.6 mpmath-1.3.0 networkx-3.6.1 numpy-2.4.3 nvidia-cublas-cu12-12.1.3.1 nvidia-cuda-cupti-cu12-12.1.105 nvidia-cuda-nvrtc-cu12-12.1.105 nvidia-cuda-runtime-cu12-12.1.105 nvidia-cudnn-cu12-9.1.0.70 nvidia-cufft-cu12-11.0.2.54 nvidia-curand-cu12-10.3.2.106 nvidia-cusolver-cu12-11.4.5.107 nvidia-cusparse-cu12-12.1.0.106 nvidia-nccl-cu12-2.21.5 nvidia-nvjitlink-cu12-12.9.86 nvidia-nvtx-cu12-12.1.105 pillow-12.1.1 setuptools-70.2.0 sympy-1.13.1 torch-2.5.1+cu121 torchaudio-2.5.1+cu121 torchvision-0.20.1+cu121 triton-3.1.0 typing-extensions-4.15.0\n",
      "WARNING: Running pip as the 'root' user can result in broken permissions and conflicting behaviour with the system package manager, possibly rendering your system unusable. It is recommended to use a virtual environment instead: https://pip.pypa.io/warnings/venv. Use the --root-user-action option if you know what you are doing and want to suppress this warning.\n",
      "[POLO] device=cuda, loaded /opt/conda/envs/beesbook/pipeline_models/polo26_feedercams_cuda.torchscript\n",
      "[POLO] pipeline built: model=/opt/conda/envs/beesbook/pipeline_models/polo26_feedercams.torchscript\n",
      "ffmpeg version 8.0.1 Copyright (c) 2000-2025 the FFmpeg developers\n",
      "  built with gcc 14.3.0 (conda-forge gcc 14.3.0-18)\n",
      "  configuration: --prefix=/opt/conda/envs/beesbook --cc=/home/conda/feedstock_root/build_artifacts/ffmpeg_1773007661644/_build_env/bin/x86_64-conda-linux-gnu-cc --cxx=/home/conda/feedstock_root/build_artifacts/ffmpeg_1773007661644/_build_env/bin/x86_64-conda-linux-gnu-c++ --nm=x86_64-conda-linux-gnu-nm --ar=x86_64-conda-linux-gnu-ar --disable-doc --enable-openssl --enable-demuxer=dash --enable-hardcoded-tables --enable-libfreetype --enable-libharfbuzz --enable-libfontconfig --enable-libopenh264 --enable-libdav1d --disable-gnutls --enable-libvpx --enable-libass --enable-pthreads --enable-alsa --enable-libpulse --enable-libvpl --enable-vaapi --enable-libopenvino --enable-gpl --enable-libx264 --enable-libx265 --enable-libmp3lame --enable-libaom --enable-libsvtav1 --enable-libxml2 --enable-pic --enable-shared --disable-static --enable-version3 --enable-zlib --enable-libvorbis --enable-libopus --enable-librsvg --enable-libjxl --enable-libwebp --enable-ffplay --enable-vulkan --enable-libshaderc --pkg-config=/home/conda/feedstock_root/build_artifacts/ffmpeg_1773007661644/_build_env/bin/pkg-config\n",
      "  libavutil      60.  8.100 / 60.  8.100\n",
      "  libavcodec     62. 11.100 / 62. 11.100\n",
      "  libavformat    62.  3.100 / 62.  3.100\n",
      "  libavdevice    62.  1.100 / 62.  1.100\n",
      "  libavfilter    11.  4.100 / 11.  4.100\n",
      "  libswscale      9.  1.100 /  9.  1.100\n",
      "  libswresample   6.  1.100 /  6.  1.100\n",
      "-vsync is deprecated. Use -fps_mode\n",
      "Passing a number to -vsync is deprecated, use a string argument as described in the manual.\n",
      "Input #0, h264, from '/home/jdavidson/pytorch_migration_test_runs/20260415-142620-e7497e/polo_docker/outdoorcam_2025-09-01-16-54-06.h264':\n",
      "  Duration: N/A, bitrate: N/A\n",
      "  Stream #0:0: Video: h264 (High), yuv420p(progressive), 1920x1080, 25 fps, 20 tbr, 1200k tbn\n",
      "Stream mapping:\n",
      "  Stream #0:0 -> #0:0 (h264 (native) -> rawvideo (native))\n",
      "Press [q] to stop, [?] for help\n",
      "Output #0, image2pipe, to 'pipe:':\n",
      "  Metadata:\n",
      "    encoder         : Lavf62.3.100\n",
      "  Stream #0:0: Video: rawvideo (Y800 / 0x30303859), gray(pc, progressive), 1920x1080, q=2-31, 165888 kb/s, 10 fps, 10 tbn\n",
      "    Metadata:\n",
      "      encoder         : Lavc62.11.100 rawvideo\n",
      "[out#0/image2pipe @ 0x5d76cac2a000] video:607500KiB audio:0KiB subtitle:0KiB other streams:0KiB global headers:0KiB muxing overhead: 0.000000%\n",
      "frame=  300 fps=5.9 q=-0.0 Lsize=  607500KiB time=00:00:30.00 bitrate=165888.0kbits/s speed=0.594x elapsed=0:00:50.53    \n",
      "TEST_RESULT: {\"mode\": \"polo\", \"video\": \"/mnt/share/beesbook2025/pi/20250901/outdoorcam/outdoorcam_2025-09-01-16-54-06.h264\", \"out\": \"/home/jdavidson/pytorch_migration_test_runs/20260415-142620-e7497e/polo_docker\", \"parquet_files\": 1, \"rc\": 0, \"elapsed_sec\": 55.21}\n"
     ]
    }
   ],
   "source": [
    "docker_payload_polo = (\n",
    "    \"set -euo pipefail; \"\n",
    "    \"source /opt/conda/etc/profile.d/conda.sh && conda activate beesbook; \"\n",
    "    \"export LD_LIBRARY_PATH=/opt/conda/envs/beesbook/lib:${LD_LIBRARY_PATH:-}; \"\n",
    "    + torch_patch_for_old_gpu +\n",
    "    f\"python -u {SCRIPT} --video '{FEEDER_VIDEO_PATH}' --mode polo --out '{OUT['polo_docker']}' --clahe\"\n",
    ")\n",
    "docker_cmd_polo = (\n",
    "    f\"docker run --rm --gpus all --runtime=nvidia \"\n",
    "    f\"-v /mnt/share:/mnt/share \"\n",
    "    f\"-v {OUT_ROOT}:{OUT_ROOT} \"\n",
    "    f\"{DOCKER_IMAGE} bash -lc \\\"{docker_payload_polo}\\\"\"\n",
    ")\n",
    "print(docker_cmd_polo)\n",
    "!{docker_cmd_polo}\n"
   ]
  },
  {
   "cell_type": "markdown",
   "id": "2566172f",
   "metadata": {},
   "source": [
    "## Verification — open outputs and count\n",
    "\n",
    "- HD: bb_binary repo → iterate `.bbb` files, count frames and detections (`detectionsDP` = tagged, `detectionsBees` = untagged).\n",
    "- POLO: parquet file → row count.\n",
    "\n",
    "Pass bar: structural validity, not numerical equivalence (CUDA/cuDNN nondeterminism makes bit-exact comparison flaky)."
   ]
  },
  {
   "cell_type": "code",
   "execution_count": 14,
   "id": "9a345902",
   "metadata": {},
   "outputs": [],
   "source": [
    "run_id = \"20260415-142620-e7497e\"\n",
    "OUT = {\n",
    "    \"hd_conda\":    os.path.join(OUT_ROOT, run_id, \"hd_conda\"),\n",
    "    \"polo_conda\":  os.path.join(OUT_ROOT, run_id, \"polo_conda\"),\n",
    "    \"hd_docker\":   os.path.join(OUT_ROOT, run_id, \"hd_docker\"),\n",
    "    \"polo_docker\": os.path.join(OUT_ROOT, run_id, \"polo_docker\"),\n",
    "}\n"
   ]
  },
  {
   "cell_type": "code",
   "execution_count": 17,
   "id": "9000461e",
   "metadata": {},
   "outputs": [
    {
     "name": "stdout",
     "output_type": "stream",
     "text": [
      "       test   ok  bbb_files  frames  detectionsDP  detectionsBees  parquet_files  rows\n",
      "   hd_conda True        1.0   360.0       75414.0        139600.0            NaN   NaN\n",
      " polo_conda True        NaN     NaN           NaN             NaN            1.0  37.0\n",
      "  hd_docker True        1.0   360.0       75414.0        139600.0            NaN   NaN\n",
      "polo_docker True        NaN     NaN           NaN             NaN            1.0  37.0\n",
      "\n",
      "tests passed: 4/4\n"
     ]
    }
   ],
   "source": [
    "import pandas as pd\n",
    "import bb_binary as bbb\n",
    "\n",
    "def verify_hd(out_dir, label):\n",
    "    if not os.path.isdir(out_dir):\n",
    "        return dict(test=label, ok=False, reason=\"no output dir\")\n",
    "    bbb_files = sorted(glob.glob(os.path.join(out_dir, \"**\", \"*.bbb\"), recursive=True))\n",
    "    if not bbb_files:\n",
    "        return dict(test=label, ok=False, reason=\"no .bbb files\")\n",
    "    n_frames = n_dp = n_bees = 0\n",
    "    for fc_path in bbb_files:\n",
    "        with open(fc_path, \"rb\") as f:\n",
    "            fc = bbb.FrameContainer.read(f)\n",
    "        for frame in fc.frames:\n",
    "            n_frames += 1\n",
    "            n_dp   += len(frame.detectionsDP)\n",
    "            n_bees += len(frame.detectionsBees)\n",
    "    ok = n_frames > 0 and (n_dp + n_bees) > 0\n",
    "    return dict(test=label, ok=ok, bbb_files=len(bbb_files),\n",
    "                frames=n_frames, detectionsDP=n_dp, detectionsBees=n_bees)\n",
    "\n",
    "def verify_polo(out_dir, label):\n",
    "    if not os.path.isdir(out_dir):\n",
    "        return dict(test=label, ok=False, reason=\"no output dir\")\n",
    "    parquet_files = sorted(glob.glob(os.path.join(out_dir, \"*.parquet\")))\n",
    "    if not parquet_files:\n",
    "        return dict(test=label, ok=False, reason=\"no .parquet files\")\n",
    "    total_rows = 0\n",
    "    for pq in parquet_files:\n",
    "        total_rows += len(pd.read_parquet(pq))\n",
    "    return dict(test=label, ok=total_rows > 0,\n",
    "                parquet_files=len(parquet_files), rows=total_rows)\n",
    "\n",
    "rows = [\n",
    "    verify_hd  (OUT[\"hd_conda\"],    \"hd_conda\"),\n",
    "    verify_polo(OUT[\"polo_conda\"],  \"polo_conda\"),\n",
    "    verify_hd  (OUT[\"hd_docker\"],   \"hd_docker\"),\n",
    "    verify_polo(OUT[\"polo_docker\"], \"polo_docker\"),\n",
    "]\n",
    "df = pd.DataFrame(rows)\n",
    "print(df.to_string(index=False))\n",
    "print()\n",
    "print(f\"tests passed: {int(df['ok'].sum())}/{len(df)}\")\n",
    "assert df[\"ok\"].all(), \"Some tests failed — see table above.\""
   ]
  },
  {
   "cell_type": "markdown",
   "id": "acb77507",
   "metadata": {},
   "source": [
    "## Sanity similarity — conda vs Docker\n",
    "\n",
    "Non-failing warning: the two environments should produce comparable detection counts (within ~10%). Large divergence is a red flag (different model weights, different CUDA behavior, etc.)."
   ]
  },
  {
   "cell_type": "code",
   "execution_count": null,
   "id": "985d6bc1",
   "metadata": {},
   "outputs": [],
   "source": [
    "def rel_diff(a, b):\n",
    "    if max(a, b) == 0:\n",
    "        return 0.0\n",
    "    return abs(a - b) / max(a, b)\n",
    "\n",
    "by_test = {r[\"test\"]: r for r in rows}\n",
    "\n",
    "# HD: compare total detections (dp + bees)\n",
    "hd_c = by_test[\"hd_conda\"].get(\"detectionsDP\", 0) + by_test[\"hd_conda\"].get(\"detectionsBees\", 0)\n",
    "hd_d = by_test[\"hd_docker\"].get(\"detectionsDP\", 0) + by_test[\"hd_docker\"].get(\"detectionsBees\", 0)\n",
    "hd_rel = rel_diff(hd_c, hd_d)\n",
    "flag_hd = \" ⚠️\" if hd_rel > 0.10 else \"\"\n",
    "print(f\"HD   detections  conda={hd_c:6d}  docker={hd_d:6d}  rel_diff={hd_rel:6.1%}{flag_hd}\")\n",
    "\n",
    "# POLO: compare parquet row counts\n",
    "po_c = by_test[\"polo_conda\"].get(\"rows\", 0)\n",
    "po_d = by_test[\"polo_docker\"].get(\"rows\", 0)\n",
    "po_rel = rel_diff(po_c, po_d)\n",
    "flag_po = \" ⚠️\" if po_rel > 0.10 else \"\"\n",
    "print(f\"POLO rows        conda={po_c:6d}  docker={po_d:6d}  rel_diff={po_rel:6.1%}{flag_po}\")\n",
    "\n",
    "if max(hd_rel, po_rel) > 0.10:\n",
    "    print(\"\\nWARNING: >10% relative difference between conda and Docker. Inspect outputs.\")"
   ]
  },
  {
   "cell_type": "markdown",
   "id": "168a731e",
   "metadata": {},
   "source": [
    "## Sample detections — eyeball check"
   ]
  },
  {
   "cell_type": "code",
   "execution_count": null,
   "id": "d0428c22",
   "metadata": {},
   "outputs": [],
   "source": [
    "def sample_hd(out_dir, label, n=5):\n",
    "    bbb_files = sorted(glob.glob(os.path.join(out_dir, \"**\", \"*.bbb\"), recursive=True))\n",
    "    if not bbb_files:\n",
    "        print(f\"[{label}] no .bbb files\"); return\n",
    "    print(f\"\\n[{label}] first {n} tagged detections from {os.path.basename(bbb_files[0])}\")\n",
    "    with open(bbb_files[0], \"rb\") as f:\n",
    "        fc = bbb.FrameContainer.read(f)\n",
    "    count = 0\n",
    "    for frame in fc.frames:\n",
    "        if count >= n: break\n",
    "        for det in frame.detectionsDP:\n",
    "            if count >= n: break\n",
    "            bits = list(det.decodedId)\n",
    "            print(f\"  frame={frame.frameIdx} xpos={det.xpos:5d} ypos={det.ypos:5d} \"\n",
    "                  f\"zRot={det.zRotation:+.2f} sal={det.localizerSaliency:.3f} id_bits={bits[:4]}...\")\n",
    "            count += 1\n",
    "\n",
    "def sample_polo(out_dir, label, n=5):\n",
    "    parquet_files = sorted(glob.glob(os.path.join(out_dir, \"*.parquet\")))\n",
    "    if not parquet_files:\n",
    "        print(f\"[{label}] no .parquet files\"); return\n",
    "    print(f\"\\n[{label}] first {n} rows from {os.path.basename(parquet_files[0])}\")\n",
    "    df_p = pd.read_parquet(parquet_files[0])\n",
    "    print(f\"  columns: {list(df_p.columns)}\")\n",
    "    print(df_p.head(n).to_string(index=False))\n",
    "\n",
    "sample_hd  (OUT[\"hd_conda\"],    \"hd_conda\")\n",
    "sample_polo(OUT[\"polo_conda\"],  \"polo_conda\")\n",
    "sample_hd  (OUT[\"hd_docker\"],   \"hd_docker\")\n",
    "sample_polo(OUT[\"polo_docker\"], \"polo_docker\")"
   ]
  }
 ],
 "metadata": {
  "kernelspec": {
   "display_name": "Python 3 (ipykernel)",
   "language": "python",
   "name": "python3"
  }
 },
 "nbformat": 4,
 "nbformat_minor": 5
}
